<?xml version="1.0" standalone="no"?>
<!DOCTYPE svg PUBLIC "-//W3C//DTD SVG 1.1//EN" "http://www.w3.org/Graphics/SVG/1.1/DTD/svg11.dtd" >
<svg xmlns="http://www.w3.org/2000/svg" xmlns:xlink="http://www.w3.org/1999/xlink" version="1.1">
<metadata>
Created by FontForge 20170731 at Sat Sep  7 03:08:55 2019
 By Aleksey,,,
Copyright Mark sensen 2019
</metadata>
<defs>
<font id="ZX-Spectrum" horiz-adv-x="4681" >
  <font-face 
    font-family="ZX Spectrum"
    font-weight="400"
    font-stretch="normal"
    units-per-em="4096"
    panose-1="0 0 4 0 0 0 0 0 0 0"
    ascent="3276"
    descent="-820"
    x-height="2925"
    cap-height="3510"
    bbox="0 -585 4681 4096"
    underline-thickness="204"
    underline-position="103"
    unicode-range="U+0020-259F"
  />
<missing-glyph horiz-adv-x="3285" 
d="M2631 50l-1281 1686l-1281 -1686h2562zM50 69l1281 1686l-1281 1686v-3372v0zM2650 69v3372l-1281 -1686l1281 -1686v0zM1350 1774l1281 1686h-2562l1281 -1686v0zM0 0v3510h2700v-3510h-2700z" />
    <glyph glyph-name=".notdef" horiz-adv-x="3285" 
d="M2631 50l-1281 1686l-1281 -1686h2562zM50 69l1281 1686l-1281 1686v-3372v0zM2650 69v3372l-1281 -1686l1281 -1686v0zM1350 1774l1281 1686h-2562l1281 -1686v0zM0 0v3510h2700v-3510h-2700z" />
    <glyph glyph-name="glyph1" horiz-adv-x="585" 
 />
    <glyph glyph-name="glyph2" horiz-adv-x="585" 
 />
    <glyph glyph-name="space" unicode=" " 
 />
    <glyph glyph-name="exclam" unicode="!" 
d="M1755 0v585h585v-585h-585zM1755 1170v2340h585v-2340h-585z" />
    <glyph glyph-name="quotedbl" unicode="&#x22;" 
d="M1170 2340v1170h585v-1170h-585zM2925 2340v1170h585v-1170h-585z" />
    <glyph glyph-name="numbersign" unicode="#" 
d="M2925 1170v1170h-1170v-1170h1170zM1170 0v585h-585v585h585v1170h-585v585h585v585h585v-585h1170v585h585v-585h586v-585h-586v-1170h586v-585h-586v-585h-585v585h-1170v-585h-585z" />
    <glyph glyph-name="dollar" unicode="$" 
d="M3510 585v585h-585v-585h585zM2340 1755v585h-585v-585h585zM2340 -585v585h-1170v585h1170v585h-1170v1755h1170v585h585v-585h1171v-585h-1171v-585h1171v-1755h-1171v-585h-585z" />
    <glyph glyph-name="percent" unicode="%" 
d="M585 0v585h585v-585h-585zM1170 585v585h585v-585h-585zM2925 0v1170h1171v-1170h-1171zM1755 1170v585h585v-585h-585zM2340 1755v585h585v-585h-585zM2925 2340v585h585v-585h-585zM585 2340v1170h1170v-1170h-1170zM3510 2925v585h586v-585h-586z" />
    <glyph glyph-name="ampersand" unicode="&#x26;" 
d="M1170 0v585h1755v-585h-1755zM3510 0v585h586v-585h-586zM585 585v585h585v-585h-585zM2925 585v585h585v-585h-585zM1170 1170v585h585v-585h-585zM2340 1170v585h585v-585h-585zM3510 1170v585h586v-585h-586zM1755 1755v585h585v-585h-585zM1170 2340v585h585v-585
h-585zM2340 2340v585h585v-585h-585zM1755 2925v585h585v-585h-585z" />
    <glyph glyph-name="quotesingle" unicode="'" 
d="M1755 2340v585h585v-585h-585zM2340 2925v585h585v-585h-585z" />
    <glyph glyph-name="parenleft" unicode="(" 
d="M2925 0v585h585v-585h-585zM2340 585v2340h585v-2340h-585zM2925 2925v585h585v-585h-585z" />
    <glyph glyph-name="parenright" unicode=")" 
d="M1170 0v585h585v-585h-585zM1755 585v2340h585v-2340h-585zM1170 2925v585h585v-585h-585z" />
    <glyph glyph-name="asterisk" unicode="*" 
d="M1755 0v585h585v-585h-585zM2925 0v585h585v-585h-585zM2340 585v585h-1170v585h1170v585h585v-585h1171v-585h-1171v-585h-585zM1755 2340v585h585v-585h-585zM2925 2340v585h585v-585h-585z" />
    <glyph glyph-name="plus" unicode="+" 
d="M2340 0v1170h-1170v585h1170v1170h585v-1170h1171v-585h-1171v-1170h-585z" />
    <glyph glyph-name="comma" unicode="," 
d="M1755 -585v585h585v-585h-585zM2340 0v1170h585v-1170h-585z" />
    <glyph glyph-name="hyphen" unicode="-" 
d="M1170 1170v585h2926v-585h-2926z" />
    <glyph glyph-name="period" unicode="." 
d="M1755 0v1170h1170v-1170h-1170z" />
    <glyph glyph-name="slash" unicode="/" 
d="M1170 0v585h585v-585h-585zM1755 585v585h585v-585h-585zM2340 1170v585h585v-585h-585zM2925 1755v585h585v-585h-585zM3510 2340v585h586v-585h-586z" />
    <glyph glyph-name="zero" unicode="0" 
d="M1755 1170v585h585v-585h-585zM2340 1755v585h585v-585h-585zM1170 0v585h-585v2340h585v-1755h585v-585h1755v-585h-2340zM3510 585v1755h-585v585h-1755v585h2340v-585h586v-2340h-586z" />
    <glyph glyph-name="one" unicode="1" 
d="M1170 2340v585h585v-585h-585zM1170 0v585h1170v2340h-585v585h1170v-2925h1171v-585h-2926z" />
    <glyph glyph-name="two" unicode="2" 
d="M585 0v1170h585v-585h2926v-585h-3511zM1170 1170v585h2340v-585h-2340zM585 2340v585h585v-585h-585zM3510 1755v1170h586v-1170h-586zM1170 2925v585h2340v-585h-2340z" />
    <glyph glyph-name="three" unicode="3" 
d="M1170 0v585h2340v-585h-2340zM585 585v585h585v-585h-585zM3510 585v1170h586v-1170h-586zM2340 1755v585h1170v-585h-1170zM585 2340v585h585v-585h-585zM3510 2340v585h586v-585h-586zM1170 2925v585h2340v-585h-2340z" />
    <glyph glyph-name="four" unicode="4" 
d="M1170 1755v585h585v-585h-585zM2340 0v585h-1755v1170h585v-585h1170v1170h-585v585h585v585h585v-2340h1171v-585h-1171v-585h-585z" />
    <glyph glyph-name="five" unicode="5" 
d="M1170 0v585h2340v-585h-2340zM585 585v585h585v-585h-585zM3510 585v1170h586v-1170h-586zM585 1755v1755h3511v-585h-2926v-585h2340v-585h-2925z" />
    <glyph glyph-name="six" unicode="6" 
d="M1170 0v585h2340v-585h-2340zM3510 585v1170h586v-1170h-586zM585 585v2340h585v-585h2340v-585h-2340v-1170h-585zM1170 2925v585h2340v-585h-2340z" />
    <glyph glyph-name="seven" unicode="7" 
d="M1755 0v1170h585v-1170h-585zM2340 1170v585h585v-585h-585zM2925 1755v585h585v-585h-585zM3510 2340v585h-2925v585h3511v-1170h-586z" />
    <glyph glyph-name="eight" unicode="8" 
d="M1170 0v585h2340v-585h-2340zM585 585v1170h585v-1170h-585zM3510 585v1170h586v-1170h-586zM1170 1755v585h2340v-585h-2340zM585 2340v585h585v-585h-585zM3510 2340v585h586v-585h-586zM1170 2925v585h2340v-585h-2340z" />
    <glyph glyph-name="nine" unicode="9" 
d="M1170 0v585h2340v-585h-2340zM585 1755v1170h585v-1170h-585zM3510 585v585h-2340v585h2340v1170h586v-2340h-586zM1170 2925v585h2340v-585h-2340z" />
    <glyph glyph-name="colon" unicode=":" 
d="M1755 0v585h585v-585h-585zM1755 1755v585h585v-585h-585z" />
    <glyph glyph-name="semicolon" unicode=";" 
d="M1170 -585v585h585v-585h-585zM1755 0v1170h585v-1170h-585zM1755 2340v585h585v-585h-585z" />
    <glyph glyph-name="less" unicode="&#x3c;" 
d="M2925 0v585h585v-585h-585zM2340 585v585h585v-585h-585zM1755 1170v585h585v-585h-585zM2340 1755v585h585v-585h-585zM2925 2340v585h585v-585h-585z" />
    <glyph glyph-name="equal" unicode="=" 
d="M1170 585v585h2926v-585h-2926zM1170 1755v585h2926v-585h-2926z" />
    <glyph glyph-name="greater" unicode="&#x3e;" 
d="M1755 0v585h585v-585h-585zM2340 585v585h585v-585h-585zM2925 1170v585h585v-585h-585zM2340 1755v585h585v-585h-585zM1755 2340v585h585v-585h-585z" />
    <glyph glyph-name="question" unicode="?" 
d="M2340 0v585h585v-585h-585zM2340 1170v585h585v-585h-585zM2925 1755v585h585v-585h-585zM585 2340v585h585v-585h-585zM3510 2340v585h586v-585h-586zM1170 2925v585h2340v-585h-2340z" />
    <glyph glyph-name="at" unicode="@" 
d="M1170 0v585h2340v-585h-2340zM585 585v2340h585v-2340h-585zM1755 1170v1170h585v-585h585v585h585v585h586v-1755h-2341zM2340 2340v585h-1170v585h2340v-585h-585v-585h-585z" />
    <glyph glyph-name="A" unicode="A" 
d="M585 0v2925h585v-1170h2340v1170h586v-2925h-586v1170h-2340v-1170h-585zM1170 2925v585h2340v-585h-2340z" />
    <glyph glyph-name="B" unicode="B" 
d="M3510 585v1170h586v-1170h-586zM3510 2340v585h586v-585h-586zM585 0v3510h2925v-585h-2340v-585h2340v-585h-2340v-1170h2340v-585h-2925z" />
    <glyph glyph-name="C" unicode="C" 
d="M1170 0v585h2340v-585h-2340zM3510 585v585h586v-585h-586zM585 585v2340h585v-2340h-585zM3510 2340v585h586v-585h-586zM1170 2925v585h2340v-585h-2340z" />
    <glyph glyph-name="D" unicode="D" 
d="M2925 585v585h585v-585h-585zM3510 1170v1170h586v-1170h-586zM2925 2340v585h585v-585h-585zM585 0v3510h2340v-585h-1755v-2340h1755v-585h-2340z" />
    <glyph glyph-name="E" unicode="E" 
d="M585 0v3510h3511v-585h-2926v-585h2340v-585h-2340v-1170h2926v-585h-3511z" />
    <glyph glyph-name="F" unicode="F" 
d="M585 0v3510h3511v-585h-2926v-585h2340v-585h-2340v-1755h-585z" />
    <glyph glyph-name="G" unicode="G" 
d="M1170 0v585h2340v-585h-2340zM3510 585v585h-1170v585h1756v-1170h-586zM585 585v2340h585v-2340h-585zM3510 2340v585h586v-585h-586zM1170 2925v585h2340v-585h-2340z" />
    <glyph glyph-name="H" unicode="H" 
d="M585 0v3510h585v-1170h2340v1170h586v-3510h-586v1755h-2340v-1755h-585z" />
    <glyph glyph-name="I" unicode="I" 
d="M1170 0v585h1170v2340h-1170v585h2926v-585h-1171v-2340h1171v-585h-2926z" />
    <glyph glyph-name="J" unicode="J" 
d="M1170 0v585h2340v-585h-2340zM585 585v1170h585v-1170h-585zM3510 585v2925h586v-2925h-586z" />
    <glyph glyph-name="K" unicode="K" 
d="M3510 0v585h586v-585h-586zM2925 585v585h585v-585h-585zM2340 1170v585h585v-585h-585zM2340 2340v585h585v-585h-585zM585 0v3510h585v-1170h1170v-585h-1170v-1755h-585zM2925 2925v585h585v-585h-585z" />
    <glyph glyph-name="L" unicode="L" 
d="M585 0v3510h585v-2925h2926v-585h-3511z" />
    <glyph glyph-name="M" unicode="M" 
d="M1755 1755v585h1170v-585h-1170zM585 0v3510h585v-585h585v-585h-585v-2340h-585zM3510 0v2340h-585v585h585v585h586v-3510h-586z" />
    <glyph glyph-name="N" unicode="N" 
d="M2340 1170v585h585v-585h-585zM1755 1755v585h585v-585h-585zM585 0v3510h585v-585h585v-585h-585v-2340h-585zM3510 0v585h-585v585h585v2340h586v-3510h-586z" />
    <glyph glyph-name="O" unicode="O" 
d="M1170 0v585h2340v-585h-2340zM585 585v2340h585v-2340h-585zM3510 585v2340h586v-2340h-586zM1170 2925v585h2340v-585h-2340z" />
    <glyph glyph-name="P" unicode="P" 
d="M3510 1755v1170h586v-1170h-586zM585 0v3510h2925v-585h-2340v-1170h2340v-585h-2340v-1170h-585z" />
    <glyph glyph-name="Q" unicode="Q" 
d="M1170 0v585h1170v585h585v-585h585v-585h-2340zM1755 1170v585h585v-585h-585zM585 585v2340h585v-2340h-585zM3510 585v2340h586v-2340h-586zM1170 2925v585h2340v-585h-2340z" />
    <glyph glyph-name="R" unicode="R" 
d="M3510 0v585h586v-585h-586zM3510 1755v1170h586v-1170h-586zM585 0v3510h2925v-585h-2340v-1170h2340v-1170h-585v585h-1755v-1170h-585z" />
    <glyph glyph-name="S" unicode="S" 
d="M1170 0v585h2340v-585h-2340zM585 585v585h585v-585h-585zM3510 585v1170h586v-1170h-586zM1170 1755v585h2340v-585h-2340zM585 2340v585h585v-585h-585zM1170 2925v585h2340v-585h-2340z" />
    <glyph glyph-name="T" unicode="T" 
d="M1755 0v2925h-1755v585h4096v-585h-1756v-2925h-585z" />
    <glyph glyph-name="U" unicode="U" 
d="M1170 0v585h2340v-585h-2340zM585 585v2925h585v-2925h-585zM3510 585v2925h586v-2925h-586z" />
    <glyph glyph-name="V" unicode="V" 
d="M1755 0v585h1170v-585h-1170zM1170 585v585h585v-585h-585zM2925 585v585h585v-585h-585zM585 1170v2340h585v-2340h-585zM3510 1170v2340h586v-2340h-586z" />
    <glyph glyph-name="W" unicode="W" 
d="M1170 0v585h585v-585h-585zM2925 0v585h585v-585h-585zM1755 585v585h1170v-585h-1170zM585 585v2925h585v-2925h-585zM3510 585v2925h586v-2925h-586z" />
    <glyph glyph-name="X" unicode="X" 
d="M585 0v585h585v-585h-585zM3510 0v585h586v-585h-586zM1170 585v585h585v-585h-585zM2925 585v585h585v-585h-585zM1755 1170v1170h1170v-1170h-1170zM1170 2340v585h585v-585h-585zM2925 2340v585h585v-585h-585zM585 2925v585h585v-585h-585zM3510 2925v585h586v-585
h-586z" />
    <glyph glyph-name="Y" unicode="Y" 
d="M1755 0v1755h585v-1755h-585zM1170 1755v585h585v-585h-585zM2340 1755v585h585v-585h-585zM585 2340v585h585v-585h-585zM2925 2340v585h585v-585h-585zM0 2925v585h585v-585h-585zM3510 2925v585h586v-585h-586z" />
    <glyph glyph-name="Z" unicode="Z" 
d="M585 0v585h585v585h585v-585h2341v-585h-3511zM1755 1170v585h585v-585h-585zM2340 1755v585h585v-585h-585zM2925 2340v585h-2340v585h3511v-585h-586v-585h-585z" />
    <glyph glyph-name="bracketleft" unicode="[" 
d="M2340 0v3510h1756v-585h-1171v-2340h1171v-585h-1756z" />
    <glyph glyph-name="backslash" unicode="\" 
d="M2925 0v585h585v-585h-585zM2340 585v585h585v-585h-585zM1755 1170v585h585v-585h-585zM1170 1755v585h585v-585h-585zM585 2340v585h585v-585h-585z" />
    <glyph glyph-name="bracketright" unicode="]" 
d="M585 0v585h1170v2340h-1170v585h1755v-3510h-1755z" />
    <glyph glyph-name="underscore" unicode="_" 
d="M0 -585v585h4681v-585h-4681z" />
    <glyph glyph-name="a" unicode="a" 
d="M585 585v585h585v-585h-585zM1170 0v585h1755v585h-1755v585h1755v585h585v-2340h-2340zM1170 2340v585h1755v-585h-1755z" />
    <glyph glyph-name="b" unicode="b" 
d="M3510 585v1170h586v-1170h-586zM1170 0v3510h585v-1170h1755v-585h-1755v-1170h1755v-585h-2340z" />
    <glyph glyph-name="c" unicode="c" 
d="M1755 0v585h1755v-585h-1755zM1170 585v1755h585v-1755h-585zM1755 2340v585h1755v-585h-1755z" />
    <glyph glyph-name="d" unicode="d" 
d="M585 585v1170h585v-1170h-585zM1170 0v585h1755v1170h-1755v585h1755v1170h585v-3510h-2340z" />
    <glyph glyph-name="e" unicode="e" 
d="M1170 0v585h2340v-585h-2340zM585 585v1755h585v-585h1755v-585h-1755v-585h-585zM2925 1755v585h585v-585h-585zM1170 2340v585h1755v-585h-1755z" />
    <glyph glyph-name="f" unicode="f" 
d="M1755 0v2925h585v-585h585v-585h-585v-1755h-585zM2340 2925v585h1170v-585h-1170z" />
    <glyph glyph-name="g" unicode="g" 
d="M1170 -585v585h1755v-585h-1755zM585 1170v1170h585v-1170h-585zM2925 0v585h-1755v585h1755v1170h-1755v585h2340v-2925h-585z" />
    <glyph glyph-name="h" unicode="h" 
d="M2925 0v1755h585v-1755h-585zM585 0v3510h585v-1170h1755v-585h-1755v-1755h-585z" />
    <glyph glyph-name="i" unicode="i" 
d="M1170 0v585h585v1170h-585v585h1170v-1755h585v-585h-1755zM1755 2925v585h585v-585h-585z" />
    <glyph glyph-name="j" unicode="j" 
d="M1755 -585v585h1170v-585h-1170zM1170 0v585h585v-585h-585zM2925 0v2340h585v-2340h-585zM2925 2925v585h585v-585h-585z" />
    <glyph glyph-name="k" unicode="k" 
d="M2925 0v585h585v-585h-585zM2340 585v585h585v-585h-585zM2340 2340v585h585v-585h-585zM1170 0v3510h585v-1170h585v-1170h-585v-1170h-585z" />
    <glyph glyph-name="l" unicode="l" 
d="M2340 0v585h1170v-585h-1170zM1755 585v2925h585v-2925h-585z" />
    <glyph glyph-name="m" unicode="m" 
d="M1755 0v2340h585v-2340h-585zM2925 0v2340h585v-2340h-585zM585 0v2925h1170v-585h-585v-2340h-585zM2340 2340v585h585v-585h-585z" />
    <glyph glyph-name="n" unicode="n" 
d="M2925 0v2340h585v-2340h-585zM585 0v2925h2340v-585h-1755v-2340h-585z" />
    <glyph glyph-name="o" unicode="o" 
d="M1170 0v585h1755v-585h-1755zM585 585v1755h585v-1755h-585zM2925 585v1755h585v-1755h-585zM1170 2340v585h1755v-585h-1755z" />
    <glyph glyph-name="p" unicode="p" 
d="M2925 1170v1170h585v-1170h-585zM585 -585v3510h2340v-585h-1755v-1170h1755v-585h-1755v-1170h-585z" />
    <glyph glyph-name="q" unicode="q" 
d="M585 1170v1170h585v-1170h-585zM2925 -585v1170h-1755v585h1755v1170h-1755v585h2340v-2925h586v-585h-1171z" />
    <glyph glyph-name="r" unicode="r" 
d="M1170 0v2340h585v-2340h-585zM1755 2340v585h1755v-585h-1755z" />
    <glyph glyph-name="s" unicode="s" 
d="M585 0v585h2340v-585h-2340zM2925 585v585h585v-585h-585zM1170 1170v585h1755v-585h-1755zM585 1755v585h585v-585h-585zM1170 2340v585h1755v-585h-1755z" />
    <glyph glyph-name="t" unicode="t" 
d="M2340 0v585h1170v-585h-1170zM1755 585v1755h-585v585h585v585h585v-585h585v-585h-585v-1755h-585z" />
    <glyph glyph-name="u" unicode="u" 
d="M1170 0v585h1755v-585h-1755zM585 585v2340h585v-2340h-585zM2925 585v2340h585v-2340h-585z" />
    <glyph glyph-name="v" unicode="v" 
d="M1755 0v585h585v-585h-585zM1170 585v1170h585v-1170h-585zM2340 585v1170h585v-1170h-585zM585 1755v1170h585v-1170h-585zM2925 1755v1170h585v-1170h-585z" />
    <glyph glyph-name="w" unicode="w" 
d="M1170 0v585h585v-585h-585zM2340 0v585h585v-585h-585zM1755 585v1755h585v-1755h-585zM585 585v2340h585v-2340h-585zM2925 585v2340h585v-2340h-585z" />
    <glyph glyph-name="x" unicode="x" 
d="M585 0v585h585v-585h-585zM2925 0v585h585v-585h-585zM1170 585v585h585v-585h-585zM2340 585v585h585v-585h-585zM1755 1170v585h585v-585h-585zM1170 1755v585h585v-585h-585zM2340 1755v585h585v-585h-585zM585 2340v585h585v-585h-585zM2925 2340v585h585v-585h-585z
" />
    <glyph glyph-name="y" unicode="y" 
d="M1170 -585v585h1755v-585h-1755zM585 1170v1755h585v-1755h-585zM2925 0v585h-1755v585h1755v1755h585v-2925h-585z" />
    <glyph glyph-name="z" unicode="z" 
d="M585 0v585h585v585h585v-585h1755v-585h-2925zM1755 1170v585h585v-585h-585zM2340 1755v585h-1755v585h2925v-585h-585v-585h-585z" />
    <glyph glyph-name="braceleft" unicode="{" 
d="M2340 0v1755h585v-1170h1171v-585h-1756zM1170 1755v585h1170v-585h-1170zM2340 2340v1170h1756v-585h-1171v-585h-585z" />
    <glyph glyph-name="bar" unicode="|" 
d="M2340 0v3510h585v-3510h-585z" />
    <glyph glyph-name="braceright" unicode="}" 
d="M585 0v585h1170v1170h585v-1755h-1755zM2340 1755v585h1170v-585h-1170zM1755 2340v585h-1170v585h1755v-1170h-585z" />
    <glyph glyph-name="asciitilde" unicode="~" 
d="M1170 2340v585h585v-585h-585zM2340 2340v585h585v-585h-585zM1755 2925v585h585v-585h-585zM2925 2925v585h585v-585h-585z" />
    <glyph glyph-name="sterling" unicode="&#xa3;" 
d="M585 0v585h585v1170h-585v585h585v585h585v-585h1170v-585h-1170v-1170h2341v-585h-3511zM3510 2340v585h586v-585h-586zM1755 2925v585h1755v-585h-1755z" />
    <glyph glyph-name="copyright" unicode="&#xa9;" 
d="M1170 -585v585h2340v-585h-2340zM585 0v585h585v-585h-585zM3510 0v585h586v-585h-586zM1755 585v585h1170v-585h-1170zM1170 1170v1170h585v-1170h-585zM0 585v2340h585v-2340h-585zM1755 2340v585h1170v-585h-1170zM4096 585v2340h585v-2340h-585zM585 2925v585h585
v-585h-585zM3510 2925v585h586v-585h-586zM1170 3510v586h2340v-586h-2340z" />
    <glyph glyph-name="uni0180" unicode="&#x180;" 
d="M0 -585v585h585v-585h-585z" />
    <glyph glyph-name="arrowup" unicode="&#x2191;" 
d="M585 1755v585h585v-585h-585zM2925 1755v585h585v-585h-585zM1755 0v2340h-585v585h585v585h585v-585h585v-585h-585v-2340h-585z" />
    <glyph glyph-name="upblock" unicode="&#x2580;" 
d="M0 1755v2341h4681v-2341h-4681z" />
    <glyph glyph-name="dnblock" unicode="&#x2584;" 
d="M0 -585v2340h4681v-2340h-4681z" />
    <glyph glyph-name="block" unicode="&#x2588;" 
d="M0 -585v4681h4681v-4681h-4681z" />
    <glyph glyph-name="lfblock" unicode="&#x258c;" 
d="M0 -585v4681h2340v-4681h-2340z" />
    <glyph glyph-name="rtblock" unicode="&#x2590;" 
d="M2340 -585v4681h2341v-4681h-2341z" />
    <glyph glyph-name="uni2596" unicode="&#x2596;" 
d="M0 -585v2340h2340v-2340h-2340z" />
    <glyph glyph-name="uni2597" unicode="&#x2597;" 
d="M2340 -585v2340h2341v-2340h-2341z" />
    <glyph glyph-name="uni2598" unicode="&#x2598;" 
d="M0 1755v2341h2340v-2341h-2340z" />
    <glyph glyph-name="uni2599" unicode="&#x2599;" 
d="M0 -585v4681h2340v-2341h2341v-2340h-4681z" />
    <glyph glyph-name="uni259A" unicode="&#x259a;" 
d="M2340 -585v2340h2341v-2340h-2341zM0 1755v2341h2340v-2341h-2340z" />
    <glyph glyph-name="uni259B" unicode="&#x259b;" 
d="M0 -585v4681h4681v-2341h-2341v-2340h-2340z" />
    <glyph glyph-name="uni259C" unicode="&#x259c;" 
d="M2340 -585v2340h-2340v2341h4681v-4681h-2341z" />
    <glyph glyph-name="uni259D" unicode="&#x259d;" 
d="M2340 1755v2341h2341v-2341h-2341z" />
    <glyph glyph-name="uni259E" unicode="&#x259e;" 
d="M0 -585v2340h2340v-2340h-2340zM2340 1755v2341h2341v-2341h-2341z" />
    <glyph glyph-name="uni259F" unicode="&#x259f;" 
d="M0 -585v2340h2340v2341h2341v-4681h-4681z" />
  </font>
</defs>
</svg>
